# ASF file generated by Tido's ASF writer for MATLAB.
:version 1.10
:name VICON
:units
  mass 1
  length 0.45000000000000001
  angle deg
:documentation
   .ast/.asf automatically generated from VICON data using
   VICON BodyBuilder and BodyLanguage model FoxedUp or BRILLIANT.MOD
:root
  axis xyz
  order tx ty tz rx ry rz 
  position 0 0 0
  orientation 0 0 0
:bonedata
  begin
    id 1
    name lhipjoint
    direction 0.44017800000000001 -0.82263900000000001 0.359871
    length 1.1390085000000001
    axis 0 0 0 xyz
  end
  begin
    id 2
    name lfemur
    direction 0.34201999999999999 -0.939693 0
    length 3.5465939999999998
    axis 0 0 20 xyz
    dof rx ry rz 
    limits (-160 20)
           (-70 70)
           (-60 70)
  end
  begin
    id 3
    name ltibia
    direction 0.34201999999999999 -0.939693 0
    length 3.7970234999999999
    axis 0 0 20 xyz
    dof rx 
    limits (-10 170)
  end
  begin
    id 4
    name lfoot
    direction 0.088635099999999994 -0.24352299999999999 0.96583699999999995
    length 1.1853629999999999
    axis -90 7.62852e-016 20 xyz
    dof rx rz 
    limits (-45 90)
           (-70 20)
  end
  begin
    id 5
    name ltoes
    direction 1.53703e-011 -4.2171700000000001e-011 1
    length 0.59142150000000004
    axis -90 7.62852e-016 20 xyz
    dof rx 
    limits (-90 20)
  end
  begin
    id 6
    name rhipjoint
    direction -0.399779 -0.83977299999999999 0.367367
    length 1.115766
    axis 0 0 0 xyz
  end
  begin
    id 7
    name rfemur
    direction -0.34201999999999999 -0.939693 0
    length 3.4866269999999999
    axis 0 0 -20 xyz
    dof rx ry rz 
    limits (-160 20)
           (-70 70)
           (-70 60)
  end
  begin
    id 8
    name rtibia
    direction -0.34201999999999999 -0.939693 0
    length 3.9349440000000002
    axis 0 0 -20 xyz
    dof rx 
    limits (-10 170)
  end
  begin
    id 9
    name rfoot
    direction -0.108514 -0.29813899999999999 0.94833400000000001
    length 1.1974590000000001
    axis -90 -7.62852e-016 -20 xyz
    dof rx rz 
    limits (-45 90)
           (-20 70)
  end
  begin
    id 10
    name rtoes
    direction -1.5339199999999999e-011 -4.2207699999999999e-011 1
    length 0.59392350000000005
    axis -90 -7.62852e-016 -20 xyz
    dof rx 
    limits (-90 20)
  end
  begin
    id 11
    name lowerback
    direction 0.011325699999999999 0.99986600000000003 0.0118602
    length 1.164123
    axis 0 0 0 xyz
    dof rx ry rz 
    limits (-20 45)
           (-30 30)
           (-30 30)
  end
  begin
    id 12
    name upperback
    direction -0.016474699999999998 0.99519299999999999 -0.096537499999999998
    length 1.135656
    axis 0 0 0 xyz
    dof rx ry rz 
    limits (-20 45)
           (-30 30)
           (-30 30)
  end
  begin
    id 13
    name thorax
    direction -0.019430099999999999 0.99433000000000005 -0.10455200000000001
    length 1.1524455
    axis 0 0 0 xyz
    dof rx ry rz 
    limits (-20 45)
           (-30 30)
           (-30 30)
  end
  begin
    id 14
    name lowerneck
    direction 0.014854300000000001 0.995587 -0.092657000000000003
    length 0.772119
    axis 0 0 0 xyz
    dof rx ry rz 
    limits (-20 45)
           (-30 30)
           (-30 30)
  end
  begin
    id 15
    name upperneck
    direction -0.0135467 0.99365599999999998 -0.111639
    length 0.76021650000000007
    axis 0 0 0 xyz
    dof rx ry rz 
    limits (-20 45)
           (-30 30)
           (-30 30)
  end
  begin
    id 16
    name head
    direction -0.0061534900000000002 0.99954699999999996 -0.029447999999999998
    length 0.78578999999999999
    axis 0 0 0 xyz
    dof rx ry rz 
    limits (-20 45)
           (-30 30)
           (-30 30)
  end
  begin
    id 17
    name lclavicle
    direction 0.98826700000000001 0.14988499999999999 0.029371299999999999
    length 2.012499
    axis 0 0 0 xyz
    dof ry rz 
    limits (-20 10)
           (0 20)
  end
  begin
    id 18
    name lhumerus
    direction 1 -4.4898600000000001e-011 -1.1483300000000001e-027
    length 2.4171659999999999
    axis 180 -30 -90 xyz
    dof rx ry rz 
    limits (-60 90)
           (-90 90)
           (-90 90)
  end
  begin
    id 19
    name lradius
    direction 0.99999800000000005 0.00170963 -0.00098705499999999992
    length 1.773954
    axis 180 -30 -90 xyz
    dof rx 
    limits (-10 170)
  end
  begin
    id 20
    name lwrist
    direction 0.99999800000000005 7.53149e-005 -0.00194706
    length 0.88697700000000002
    axis 4.6505600000000004e-015 90 90 xyz
    dof ry 
    limits (-180 0)
  end
  begin
    id 21
    name lhand
    direction 1 -4.48973e-011 -1.3174599999999999e-026
    length 0.5306265
    axis 8.4064999999999996e-015 90 90 xyz
    dof rx rz 
    limits (-90 90)
           (-45 45)
  end
  begin
    id 22
    name lfingers
    direction 1 -4.49107e-011 -2.6349199999999999e-026
    length 0.42780555000000003
    axis 1.6812999999999999e-014 90 90 xyz
    dof rx 
    limits (0 90)
  end
  begin
    id 23
    name lthumb
    direction 0.70710700000000004 -6.3504800000000005e-011 0.70710700000000004
    length 0.6142455
    axis -90 45 2.8529899999999998e-015 xyz
    dof rx rz 
    limits (-45 45)
           (-45 45)
  end
  begin
    id 24
    name rclavicle
    direction -0.996699 0.064289499999999999 -0.049572499999999999
    length 2.0817494999999999
    axis 0 0 0 xyz
    dof ry rz 
    limits (-10 20)
           (-20 0)
  end
  begin
    id 25
    name rhumerus
    direction -1 -4.4891899999999998e-011 -2.4105900000000001e-027
    length 2.474145
    axis 180 30 90 xyz
    dof rx ry rz 
    limits (-90 60)
           (-90 90)
           (-90 90)
  end
  begin
    id 26
    name rradius
    direction -0.99999899999999997 0.0011810099999999999 -0.00068185800000000003
    length 1.5677145000000001
    axis 180 30 90 xyz
    dof rx 
    limits (-10 170)
  end
  begin
    id 27
    name rwrist
    direction -0.99999899999999997 0.000321823 -0.00132288
    length 0.78385499999999997
    axis 4.6505600000000004e-015 -90 -90 xyz
    dof ry 
    limits (-180 0)
  end
  begin
    id 28
    name rhand
    direction -1 -4.4902199999999998e-011 -1.3174599999999999e-026
    length 0.60719400000000001
    axis 8.4064999999999996e-015 -90 -90 xyz
    dof rx rz 
    limits (-90 90)
           (-45 45)
  end
  begin
    id 29
    name rfingers
    direction -1 -4.4917800000000002e-011 -2.6349199999999999e-026
    length 0.48953249999999998
    axis 1.6812999999999999e-014 -90 -90 xyz
    dof rx 
    limits (0 90)
  end
  begin
    id 30
    name rthumb
    direction -0.70710700000000004 -6.3471300000000002e-011 0.70710700000000004
    length 0.70287750000000004
    axis -90 -45 -2.8529899999999998e-015 xyz
    dof rx rz 
    limits (-45 45)
           (-45 45)
  end
:hierarchy
begin
  root lhipjoint rhipjoint lowerback 
  lhipjoint lfemur 
  lfemur ltibia 
  ltibia lfoot 
  lfoot ltoes 
  rhipjoint rfemur 
  rfemur rtibia 
  rtibia rfoot 
  rfoot rtoes 
  lowerback upperback 
  upperback thorax 
  thorax lowerneck lclavicle rclavicle 
  lowerneck upperneck 
  upperneck head 
  lclavicle lhumerus 
  lhumerus lradius 
  lradius lwrist 
  lwrist lhand lthumb 
  lhand lfingers 
  rclavicle rhumerus 
  rhumerus rradius 
  rradius rwrist 
  rwrist rhand rthumb 
  rhand rfingers 
end

# AMC file generated by Tido's AMC writer for MATLAB on 27-Nov-2005 at 18:24:20
# Corresponding ASF file: S:\data_MoCap\MoCaDaDB\HDM\Bonn_ASF_AMC_Use IK_on\björn\bjorn.asf
# Number of frames: 542
# Sampling rate: 120
:fully-specified
:degrees
221
root 0.81675900000000001 8.4465000000000003 -12.916665 121.991 82.212299999999999 484.15600000000001 
lfemur 8.9053500000000003 14.599399999999999 -18.034700000000001 
ltibia 21.844000000000001 
lfoot -18.482099999999999 -13.4773 
ltoes -13.807 
rfemur -35.178199999999997 -18.902100000000001 20.9848 
rtibia 35.949199999999998 
rfoot -11.176299999999999 14.1715 
rtoes -7.4244399999999997 
lowerback -2.10582 -3.54413 -8.6405700000000003 
upperback 10.859 -3.1655700000000002 -3.3967299999999998 
thorax 13.422000000000001 -1.97556 0.66129099999999996 
lowerneck 1.27332 -8.0344899999999999 -0.51370300000000002 
upperneck 7.3579499999999998 -11.284599999999999 11.5304 
head 2.9782500000000001 -5.2705399999999996 3.6369600000000002 
lclavicle 3.2998300000000001e-014 -1.5902800000000001e-015 
lhumerus -4.7205300000000001 -11.576499999999999 72.768600000000006 
lradius 62.739100000000001 
lwrist -4.8846600000000002 
lhand -31.194900000000001 -10.291499999999999 
lfingers 7.1250200000000001 
lthumb -4.4713099999999999 19.641300000000001 
rclavicle 3.2998300000000001e-014 -1.5902800000000001e-015 
rhumerus -64.1678 -45.796700000000001 -37.738700000000001 
rradius 12.087400000000001 
rwrist 38.712499999999999 
rhand -12.0791 11.233599999999999 
rfingers 7.1250200000000001 
rthumb 13.9808 -18.276299999999999 
222
root 0.89051400000000003 8.4385800000000017 -12.921749999999999 120.35299999999999 82.136700000000005 482.346 
lfemur 9.7286999999999999 14.588800000000001 -18.175999999999998 
ltibia 21.036799999999999 
lfoot -18.297599999999999 -13.4216 
ltoes -13.4147 
rfemur -35.940199999999997 -19.4712 21.2303 
rtibia 35.003399999999999 
rfoot -11.4893 14.3172 
rtoes -6.0369099999999998 
lowerback -2.37486 -3.59395 -8.6642399999999995 
upperback 10.8096 -3.2129500000000002 -3.3869899999999999 
thorax 13.5388 -2.00501 0.66229000000000005 
lowerneck 1.31314 -8.0527200000000008 -0.61780800000000002 
upperneck 7.3075599999999996 -11.3086 11.614100000000001 
head 2.9695299999999998 -5.2870999999999997 3.6861899999999999 
lclavicle -6.2020800000000005e-014 -2.3058999999999999e-014 
lhumerus -4.1360000000000001 -11.2867 72.540499999999994 
lradius 62.828099999999999 
lwrist -5.3179800000000004 
lhand -31.073899999999998 -10.1624 
lfingers 7.1250200000000001 
lthumb -4.3545199999999999 19.7729 
rclavicle -6.2020800000000005e-014 -2.3058999999999999e-014 
rhumerus -64.974900000000005 -45.974200000000003 -36.740400000000001 
rradius 12.038500000000001 
rwrist 38.751399999999997 
rhand -12.0922 11.1067 
rfingers 7.1250200000000001 
rthumb 13.9682 -18.4041 
223
root 0.96462000000000014 8.4297599999999999 -12.926205000000001 118.746 82.054000000000002 480.56900000000002 
lfemur 10.5222 14.587899999999999 -18.3033 
ltibia 20.292300000000001 
lfoot -18.133500000000002 -13.407500000000001 
ltoes -13.2043 
rfemur -36.704599999999999 -20.046900000000001 21.475000000000001 
rtibia 34.153100000000002 
rfoot -12.065300000000001 14.606999999999999 
rtoes -6.7429699999999997 
lowerback -2.6468799999999999 -3.6517499999999998 -8.6906300000000005 
upperback 10.767099999999999 -3.27095 -3.36652 
thorax 13.668200000000001 -2.0407899999999999 0.67375099999999999 
lowerneck 1.2818499999999999 -8.0729500000000005 -0.78347900000000004 
upperneck 7.2966300000000004 -11.3438 11.7075 
head 2.99349 -5.3069199999999999 3.7465000000000002 
lclavicle 1.07344e-014 4.9298600000000002e-014 
lhumerus -3.6049500000000001 -10.8584 72.462000000000003 
lradius 62.822299999999998 
lwrist -5.8533400000000002 
lhand -31.017099999999999 -10.1539 
lfingers 7.1250200000000001 
lthumb -4.29969 19.782399999999999 
rclavicle 1.07344e-014 4.9298600000000002e-014 
rhumerus -65.714799999999997 -46.264000000000003 -35.639600000000002 
rradius 11.885400000000001 
rwrist 38.984099999999998 
rhand -12.107799999999999 10.724399999999999 
rfingers 7.1250200000000001 
rthumb 13.953200000000001 -18.787400000000002 
224
root 1.0391625 8.4201300000000003 -12.93003 117.321 82.001199999999997 478.964 
lfemur 11.292899999999999 14.4969 -18.416399999999999 
ltibia 19.582100000000001 
lfoot -18.017700000000001 -13.3102 
ltoes -13.016299999999999 
rfemur -37.488799999999998 -20.653300000000002 21.785499999999999 
rtibia 33.417999999999999 
rfoot -12.456799999999999 14.872299999999999 
rtoes -6.2612699999999997 
lowerback -2.9120200000000001 -3.71698 -8.6691400000000005 
upperback 10.7066 -3.3488899999999999 -3.3374899999999998 
thorax 13.7689 -2.0815899999999998 0.66673700000000002 
lowerneck 1.26562 -8.0879600000000007 -0.95445199999999997 
upperneck 7.2883599999999999 -11.3705 11.7841 
head 3.0140899999999999 -5.32362 3.8028900000000001 
lclavicle 3.7967900000000001e-014 1.74931e-014 
lhumerus -3.1592500000000001 -10.4658 72.340500000000006 
lradius 62.754199999999997 
lwrist -6.2114099999999999 
lhand -30.9892 -10.238899999999999 
lfingers 7.1250200000000001 
lthumb -4.2727199999999996 19.698 
rclavicle 3.7967900000000001e-014 1.74931e-014 
rhumerus -66.790300000000002 -46.771000000000001 -34.093000000000004 
rradius 11.726100000000001 
rwrist 39.660400000000003 
rhand -12.156499999999999 10.1113 
rfingers 7.1250200000000001 
rthumb 13.9062 -19.4038 
225
root 1.1137949999999999 8.4092850000000006 -12.932640000000001 115.876 81.926299999999998 477.34199999999998 
lfemur 12.0489 14.519 -18.485299999999999 
ltibia 18.908300000000001 
lfoot -17.824200000000001 -13.4 
ltoes -12.694000000000001 
rfemur -38.216099999999997 -21.1435 22.029199999999999 
rtibia 32.811 
rfoot -12.8278 15.112 
rtoes -5.6609400000000001 
lowerback -3.19347 -3.7755899999999998 -8.6655800000000003 
upperback 10.666399999999999 -3.4105300000000001 -3.3116099999999999 
thorax 13.9053 -2.1163599999999998 0.66556899999999997 
lowerneck 1.2158500000000001 -8.0997000000000003 -1.1880299999999999 
upperneck 7.4297500000000003 -11.436500000000001 12.2286 
head 2.7902900000000002 -5.3242599999999998 3.57951 
lclavicle 1.7691799999999999e-014 4.7708300000000003e-014 
lhumerus -2.6647799999999999 -10.117900000000001 72.196799999999996 
lradius 62.548099999999998 
lwrist -6.3879700000000001 
lhand -31.065200000000001 -10.5785 
lfingers 7.1250200000000001 
lthumb -4.3460900000000002 19.3569 
rclavicle 1.7691799999999999e-014 4.7708300000000003e-014 
rhumerus -67.607699999999994 -47.1205 -32.994599999999998 
rradius 11.6135 
rwrist 40.0184 
rhand -12.210900000000001 9.2699099999999994 
rfingers 7.1250200000000001 
rthumb 13.8538 -20.248699999999999 
226
root 1.189368 8.3991150000000001 -12.934530000000001 114.44199999999999 81.914699999999996 475.755 
lfemur 12.821199999999999 14.511699999999999 -18.494299999999999 
ltibia 18.264700000000001 
lfoot -17.647200000000002 -13.3941 
ltoes -12.6754 
rfemur -38.719299999999997 -21.464400000000001 22.27 
rtibia 32.330500000000001 
rfoot -13.5556 15.092499999999999 
rtoes -6.44278 
lowerback -3.44983 -3.8229199999999999 -8.5903200000000002 
upperback 10.631600000000001 -3.4676 -3.2824599999999999 
thorax 14.0245 -2.1415299999999999 0.63106600000000002 
lowerneck 1.1596 -8.1194000000000006 -1.3256300000000001 
upperneck 7.39297 -11.468999999999999 12.3117 
head 2.80315 -5.34232 3.6220500000000002 
lclavicle 2.0673600000000001e-014 1.07344e-014 
lhumerus -2.23522 -9.7965800000000005 72.038899999999998 
lradius 62.270099999999999 
lwrist -6.56229 
lhand -31.254000000000001 -10.923 
lfingers 7.1250200000000001 
lthumb -4.52841 19.008500000000002 
rclavicle 2.0673600000000001e-014 1.07344e-014 
rhumerus -68.631399999999999 -47.604999999999997 -31.601600000000001 
rradius 11.459199999999999 
rwrist 40.670499999999997 
rhand -12.2576 8.7755200000000002 
rfingers 7.1250200000000001 
rthumb 13.8087 -20.746200000000002 
227
root 1.2650175000000001 8.3878650000000015 -12.936105 113.036 81.8917 474.20999999999998 
lfemur 13.5905 14.4284 -18.5244 
ltibia 17.655899999999999 
lfoot -17.479900000000001 -13.3621 
ltoes -12.470000000000001 
rfemur -39.128799999999998 -21.739599999999999 22.459900000000001 
rtibia 31.965800000000002 
rfoot -14.127800000000001 14.885199999999999 
rtoes -7.04129 
lowerback -3.67598 -3.8653300000000002 -8.5088100000000004 
upperback 10.5885 -3.5239199999999999 -3.24966 
thorax 14.114000000000001 -2.1653799999999999 0.59976799999999997 
lowerneck 1.1398900000000001 -8.1365700000000007 -1.48397 
upperneck 7.3469300000000004 -11.4956 12.393599999999999 
head 2.80789 -5.3597099999999998 3.66953 
lclavicle 2.22639e-014 2.22639e-014 
lhumerus -1.93601 -9.3973899999999997 72.0578 
lradius 61.9529 
lwrist -6.9074999999999998 
lhand -31.551500000000001 -11.3484 
lfingers 7.1250200000000001 
lthumb -4.8157100000000002 18.576799999999999 
rclavicle 2.22639e-014 2.22639e-014 
rhumerus -69.550399999999996 -48.016100000000002 -30.397500000000001 
rradius 11.346399999999999 
rwrist 41.191699999999997 
rhand -12.342499999999999 8.7772000000000006 
rfingers 7.1250200000000001 
rthumb 13.726900000000001 -20.75 
228
root 1.341702 8.3753999999999991 -12.937545 111.488 81.871099999999998 472.53399999999999 
lfemur 14.3721 14.2681 -18.586099999999998 
ltibia 17.066400000000002 
lfoot -17.241700000000002 -13.297700000000001 
ltoes -11.928000000000001 
rfemur -39.464700000000001 -22.0334 22.6571 
rtibia 31.710100000000001 
rfoot -14.474 14.5106 
rtoes -7.2763600000000004 
lowerback -3.8835099999999998 -3.9060899999999998 -8.4172200000000004 
upperback 10.5275 -3.5850300000000002 -3.21075 
thorax 14.169499999999999 -2.1905600000000001 0.57123400000000002 
lowerneck 1.18781 -8.1482600000000005 -1.69937 
upperneck 7.3050300000000004 -11.513299999999999 12.4833 
head 2.80558 -5.3761900000000002 3.7315800000000001 
lclavicle -1.7890599999999999e-014 -3.0612800000000002e-014 
lhumerus -1.64672 -9.0218600000000002 72.063900000000004 
lradius 61.475499999999997 
lwrist -7.2065099999999997 
lhand -31.9724 -11.8246 
lfingers 7.1250200000000001 
lthumb -5.2220800000000001 18.091000000000001 
rclavicle -1.7890599999999999e-014 -3.0612800000000002e-014 
rhumerus -71.198700000000002 -48.750100000000003 -28.146899999999999 
rradius 11.151 
rwrist 42.578400000000002 
rhand -12.4376 8.8086800000000007 
rfingers 7.1250200000000001 
rthumb 13.635300000000001 -20.724699999999999 
